<svg width="28" height="28" viewBox="0 0 28 28" fill="none" xmlns="http://www.w3.org/2000/svg">
<path d="M13.9981 10.9989C12.3455 10.9989 10.9968 12.3476 10.9968 14.0002C10.9968 15.6528 12.3455 17.0015 13.9981 17.0015C15.6507 17.0015 16.9994 15.6528 16.9994 14.0002C16.9994 12.3476 15.6507 10.9989 13.9981 10.9989Z" fill="#fff"/>
<path d="M22.9993 14C22.9993 12.7572 23.0106 11.5256 22.9408 10.285C22.871 8.84402 22.5423 7.56515 21.4886 6.51144C20.4326 5.45548 19.156 5.12901 17.715 5.05921C16.4722 4.98941 15.2406 5.00067 14 5.00067C12.7572 5.00067 11.5256 4.98941 10.285 5.05921C8.84402 5.12901 7.56515 5.45773 6.51144 6.51144C5.45548 7.5674 5.12901 8.84402 5.05921 10.285C4.98941 11.5278 5.00067 12.7594 5.00067 14C5.00067 15.2406 4.98941 16.4744 5.05921 17.715C5.12901 19.156 5.45773 20.4348 6.51144 21.4886C7.5674 22.5445 8.84402 22.871 10.285 22.9408C11.5278 23.0106 12.7594 22.9993 14 22.9993C15.2428 22.9993 16.4744 23.0106 17.715 22.9408C19.156 22.871 20.4348 22.5423 21.4886 21.4886C22.5445 20.4326 22.871 19.156 22.9408 17.715C23.0128 16.4744 22.9993 15.2428 22.9993 14ZM13.9977 18.6179C11.4423 18.6179 9.37988 16.5555 9.37988 14C9.37988 11.4445 11.4423 9.38213 13.9977 9.38213C16.5532 9.38213 18.6156 11.4445 18.6156 14C18.6156 16.5555 16.5532 18.6179 13.9977 18.6179ZM18.8047 10.2715C18.2081 10.2715 17.7263 9.78966 17.7263 9.193C17.7263 8.59635 18.2081 8.11452 18.8047 8.11452C19.4014 8.11452 19.8832 8.59635 19.8832 9.193C19.881 9.79191 19.4014 10.2715 18.8047 10.2715Z" fill="#fff"/>
</svg>
