<svg width="23" height="37" viewBox="0 0 23 37" fill="none" xmlns="http://www.w3.org/2000/svg">
<path d="M0 12.871C0 12.8029 0.0318808 12.5602 0.454334 12.169C0.871222 11.7829 1.54563 11.3759 2.48401 11.0083C4.35032 10.2773 7.00752 9.80005 10 9.80005C12.9925 9.80005 15.6497 10.2773 17.516 11.0083C18.4544 11.3759 19.1288 11.7829 19.5457 12.169C19.9681 12.5602 20 12.8029 20 12.871C20 12.9391 19.9681 13.1818 19.5457 13.5731C19.1288 13.9592 18.4544 14.3661 17.516 14.7337C15.6497 15.4648 12.9925 15.942 10 15.942C7.00752 15.942 4.35032 15.4648 2.48401 14.7337C1.54563 14.3661 0.871222 13.9592 0.454334 13.5731C0.0318808 13.1818 0 12.9391 0 12.871Z" fill="white"/>
<path d="M18.3232 17.2126C18.7867 17.0311 19.228 16.8292 19.6373 16.6059C19.7985 16.518 20 16.6322 20 16.8158V19.8904C20 19.9585 19.9681 20.2012 19.5457 20.5924C19.1288 20.9785 18.4544 21.3855 17.516 21.7531C15.6497 22.4841 12.9925 22.9613 10 22.9613C7.00752 22.9613 4.35032 22.4841 2.48401 21.7531C1.54563 21.3855 0.871222 20.9785 0.454334 20.5924C0.0318808 20.2012 0 19.9585 0 19.8904V16.8158C0 16.6322 0.201531 16.518 0.362721 16.6059C0.771991 16.8292 1.21328 17.0311 1.6768 17.2126C3.86409 18.0694 6.80689 18.5742 10 18.5742C13.1931 18.5742 16.1359 18.0694 18.3232 17.2126Z" fill="white"/>
<path d="M18.3232 24.232C18.7867 24.0504 19.228 23.8485 19.6373 23.6253C19.7985 23.5374 20 23.6515 20 23.8351V26.9097C20 26.9778 19.9681 27.2206 19.5457 27.6118C19.1288 27.9979 18.4544 28.4049 17.516 28.7724C15.6497 29.5035 12.9925 29.9807 10 29.9807C7.00752 29.9807 4.35032 29.5035 2.48401 28.7724C1.54563 28.4049 0.871222 27.9979 0.454334 27.6118C0.0318808 27.2206 0 26.9778 0 26.9097V23.8351C0 23.6515 0.201532 23.5374 0.362721 23.6253C0.771992 23.8485 1.21328 24.0504 1.6768 24.232C3.86409 25.0887 6.80689 25.5936 10 25.5936C13.1931 25.5936 16.1359 25.0887 18.3232 24.232Z" fill="white"/>
<path d="M18.3232 31.2513C18.7867 31.0698 19.228 30.8679 19.6373 30.6447C19.7985 30.5567 20 30.6709 20 30.8545V33.9291C20 33.9972 19.9681 34.2399 19.5457 34.6311C19.1288 35.0172 18.4544 35.4242 17.516 35.7918C15.6497 36.5228 12.9925 37 10 37C7.00752 37 4.35032 36.5228 2.48401 35.7918C1.54563 35.4242 0.871222 35.0172 0.454334 34.6311C0.0318808 34.2399 0 33.9972 0 33.9291V30.8545C0 30.6709 0.201532 30.5567 0.362721 30.6447C0.771992 30.8679 1.21328 31.0698 1.6768 31.2513C3.86409 32.1081 6.80689 32.613 10 32.613C13.1931 32.613 16.1359 32.1081 18.3232 31.2513Z" fill="white"/>
<path d="M16.3037 2.82948L15.8337 1.53385L15.3636 2.82948L14.3167 5.7155L11.4904 6.78221L10.251 7.25L11.4904 7.71779L14.3167 8.7845L15.3636 11.6705L15.8337 12.9661L16.3037 11.6705L17.3507 8.7845L20.1769 7.71779L21.4163 7.25L20.1769 6.78221L17.3507 5.7155L16.3037 2.82948Z" fill="white" stroke="#161718"/>
</svg>
